<mxfile host="Electron" agent="Mozilla/5.0 (Windows NT 10.0; Win64; x64) AppleWebKit/537.36 (KHTML, like Gecko) draw.io/22.1.16 Chrome/120.0.6099.109 Electron/28.1.0 Safari/537.36" modified="2025-10-12T09:30:22.913Z" version="22.1.16" etag="Jy0u_CON1I3xbvWq6_8U" type="device">
  <diagram name="Page-1" id="8A1jB1fW7KqP0RaCEMlH">
    <mxGraphModel dx="516" dy="441" grid="1" gridSize="10" guides="1" tooltips="1" connect="1" arrows="1" fold="1" page="1" pageScale="1" pageWidth="669" pageHeight="98" math="0" shadow="0">
      <root>
        <mxCell id="0" />
        <mxCell id="1" parent="0" />
        <mxCell id="2MBnuzI3uDu-XapK-cwq-3" value="zmm" style="rounded=0;whiteSpace=wrap;html=1;align=left;spacing=5.9055;fillColor=none;" parent="1" vertex="1">
          <mxGeometry x="160" y="60.96" width="323.75" height="33.07" as="geometry" />
        </mxCell>
        <mxCell id="2MBnuzI3uDu-XapK-cwq-2" value="ymm" style="rounded=0;whiteSpace=wrap;html=1;align=left;spacing=5.9055;dashed=1;fillColor=#dae8fc;strokeColor=#6c8ebf;fillOpacity=70;" parent="1" vertex="1">
          <mxGeometry x="318" y="62.93" width="163.7792" height="29.1338" as="geometry" />
        </mxCell>
        <mxCell id="2MBnuzI3uDu-XapK-cwq-1" value="xmm" style="rounded=0;whiteSpace=wrap;html=1;dashed=1;dashPattern=1 1;align=left;spacing=5.9055;fillColor=#d5e8d4;strokeColor=#82b366;fillOpacity=70;" parent="1" vertex="1">
          <mxGeometry x="400" y="65" width="80" height="25" as="geometry" />
        </mxCell>
        <mxCell id="2MBnuzI3uDu-XapK-cwq-4" value="" style="endArrow=none;html=1;rounded=0;" parent="1" edge="1">
          <mxGeometry width="50" height="50" relative="1" as="geometry">
            <mxPoint x="480" y="50" as="sourcePoint" />
            <mxPoint x="480" y="30" as="targetPoint" />
          </mxGeometry>
        </mxCell>
        <mxCell id="2MBnuzI3uDu-XapK-cwq-5" value="" style="endArrow=none;html=1;rounded=0;" parent="1" edge="1">
          <mxGeometry width="50" height="50" relative="1" as="geometry">
            <mxPoint x="439.71" y="50" as="sourcePoint" />
            <mxPoint x="439.71" y="30" as="targetPoint" />
          </mxGeometry>
        </mxCell>
        <mxCell id="2MBnuzI3uDu-XapK-cwq-6" value="" style="endArrow=none;html=1;rounded=0;" parent="1" edge="1">
          <mxGeometry width="50" height="50" relative="1" as="geometry">
            <mxPoint x="399.43" y="50" as="sourcePoint" />
            <mxPoint x="399.43" y="30" as="targetPoint" />
          </mxGeometry>
        </mxCell>
        <mxCell id="2MBnuzI3uDu-XapK-cwq-7" value="" style="endArrow=none;html=1;rounded=0;" parent="1" edge="1">
          <mxGeometry width="50" height="50" relative="1" as="geometry">
            <mxPoint x="360" y="50" as="sourcePoint" />
            <mxPoint x="360" y="30" as="targetPoint" />
          </mxGeometry>
        </mxCell>
        <mxCell id="2MBnuzI3uDu-XapK-cwq-8" value="" style="endArrow=none;html=1;rounded=0;" parent="1" edge="1">
          <mxGeometry width="50" height="50" relative="1" as="geometry">
            <mxPoint x="320" y="50" as="sourcePoint" />
            <mxPoint x="320" y="30" as="targetPoint" />
          </mxGeometry>
        </mxCell>
        <mxCell id="2MBnuzI3uDu-XapK-cwq-9" value="" style="endArrow=none;html=1;rounded=0;" parent="1" edge="1">
          <mxGeometry width="50" height="50" relative="1" as="geometry">
            <mxPoint x="280" y="50" as="sourcePoint" />
            <mxPoint x="280" y="30" as="targetPoint" />
          </mxGeometry>
        </mxCell>
        <mxCell id="2MBnuzI3uDu-XapK-cwq-10" value="" style="endArrow=none;html=1;rounded=0;" parent="1" edge="1">
          <mxGeometry width="50" height="50" relative="1" as="geometry">
            <mxPoint x="239.70999999999998" y="50" as="sourcePoint" />
            <mxPoint x="239.70999999999998" y="30" as="targetPoint" />
          </mxGeometry>
        </mxCell>
        <mxCell id="2MBnuzI3uDu-XapK-cwq-11" value="" style="endArrow=none;html=1;rounded=0;" parent="1" edge="1">
          <mxGeometry width="50" height="50" relative="1" as="geometry">
            <mxPoint x="199.43" y="50" as="sourcePoint" />
            <mxPoint x="199.43" y="30" as="targetPoint" />
          </mxGeometry>
        </mxCell>
        <mxCell id="2MBnuzI3uDu-XapK-cwq-12" value="" style="endArrow=none;html=1;rounded=0;" parent="1" edge="1">
          <mxGeometry width="50" height="50" relative="1" as="geometry">
            <mxPoint x="160" y="50" as="sourcePoint" />
            <mxPoint x="160" y="30" as="targetPoint" />
          </mxGeometry>
        </mxCell>
        <mxCell id="2MBnuzI3uDu-XapK-cwq-13" value="64" style="text;strokeColor=none;align=center;fillColor=none;html=1;verticalAlign=middle;whiteSpace=wrap;rounded=0;" parent="1" vertex="1">
          <mxGeometry x="430" y="10" width="20" height="20" as="geometry" />
        </mxCell>
        <mxCell id="2MBnuzI3uDu-XapK-cwq-14" value="128" style="text;strokeColor=none;align=center;fillColor=none;html=1;verticalAlign=middle;whiteSpace=wrap;rounded=0;" parent="1" vertex="1">
          <mxGeometry x="390" y="10" width="20" height="20" as="geometry" />
        </mxCell>
        <mxCell id="2MBnuzI3uDu-XapK-cwq-15" value="192" style="text;strokeColor=none;align=center;fillColor=none;html=1;verticalAlign=middle;whiteSpace=wrap;rounded=0;" parent="1" vertex="1">
          <mxGeometry x="350" y="10" width="20" height="20" as="geometry" />
        </mxCell>
        <mxCell id="2MBnuzI3uDu-XapK-cwq-16" value="256" style="text;strokeColor=none;align=center;fillColor=none;html=1;verticalAlign=middle;whiteSpace=wrap;rounded=0;" parent="1" vertex="1">
          <mxGeometry x="310" y="10" width="20" height="20" as="geometry" />
        </mxCell>
        <mxCell id="2MBnuzI3uDu-XapK-cwq-17" value="128" style="text;strokeColor=none;align=center;fillColor=none;html=1;verticalAlign=middle;whiteSpace=wrap;rounded=0;" parent="1" vertex="1">
          <mxGeometry x="270" y="10" width="20" height="20" as="geometry" />
        </mxCell>
        <mxCell id="2MBnuzI3uDu-XapK-cwq-18" value="320" style="text;strokeColor=none;align=center;fillColor=none;html=1;verticalAlign=middle;whiteSpace=wrap;rounded=0;" parent="1" vertex="1">
          <mxGeometry x="230" y="10" width="20" height="20" as="geometry" />
        </mxCell>
        <mxCell id="2MBnuzI3uDu-XapK-cwq-19" value="448" style="text;strokeColor=none;align=center;fillColor=none;html=1;verticalAlign=middle;whiteSpace=wrap;rounded=0;" parent="1" vertex="1">
          <mxGeometry x="190" y="10" width="20" height="20" as="geometry" />
        </mxCell>
        <mxCell id="2MBnuzI3uDu-XapK-cwq-20" value="512" style="text;strokeColor=none;align=center;fillColor=none;html=1;verticalAlign=middle;whiteSpace=wrap;rounded=0;" parent="1" vertex="1">
          <mxGeometry x="150" y="10" width="20" height="20" as="geometry" />
        </mxCell>
        <mxCell id="2MBnuzI3uDu-XapK-cwq-21" value="0" style="text;strokeColor=none;align=center;fillColor=none;html=1;verticalAlign=middle;whiteSpace=wrap;rounded=0;" parent="1" vertex="1">
          <mxGeometry x="470" y="10" width="20" height="20" as="geometry" />
        </mxCell>
        <mxCell id="2MBnuzI3uDu-XapK-cwq-22" value="bit(s)" style="text;strokeColor=none;align=center;fillColor=none;html=1;verticalAlign=middle;whiteSpace=wrap;rounded=0;" parent="1" vertex="1">
          <mxGeometry x="490" y="12.5" width="60" height="15" as="geometry" />
        </mxCell>
      </root>
    </mxGraphModel>
  </diagram>
</mxfile>
